<?xml version="1.0" encoding="UTF-8"?>
<svg id="Layer_1" data-name="Layer 1" xmlns="http://www.w3.org/2000/svg" xmlns:xlink="http://www.w3.org/1999/xlink" viewBox="0 0 155.79 155.79">
  <defs>
    <style>
      .cls-1 {
        opacity: .5;
      }

      .cls-2 {
        fill: none;
      }

      .cls-2, .cls-3, .cls-4, .cls-5, .cls-6 {
        stroke-width: 0px;
      }

      .cls-3 {
        fill: #61418a;
      }

      .cls-7 {
        clip-path: url(#clippath);
      }

      .cls-4 {
        fill: #36418b;
        filter: url(#drop-shadow-1);
      }

      .cls-5 {
        fill: #2c3c85;
      }

      .cls-8 {
        fill: #faf5ae;
        stroke: #faf5ae;
        stroke-miterlimit: 10;
        stroke-width: 9px;
      }

      .cls-6 {
        fill: #abc968;
      }
    </style>
    <clipPath id="clippath">
      <circle class="cls-2" cx="77.9" cy="77.9" r="77.9"/>
    </clipPath>
    <filter id="drop-shadow-1" filterUnits="userSpaceOnUse">
      <feOffset dx="0" dy="0"/>
      <feGaussianBlur result="blur" stdDeviation="2"/>
      <feFlood flood-color="#2c180d" flood-opacity=".3"/>
      <feComposite in2="blur" operator="in"/>
      <feComposite in="SourceGraphic"/>
    </filter>
  </defs>
  <g class="cls-7">
    <circle class="cls-8" cx="77.9" cy="77.9" r="77.9"/>
    <g class="cls-1">
      <path class="cls-5" d="m127.32,53.36h0c-1.62.93-3.68.38-4.62-1.24l-4.8-8.31c-.93-1.62-.38-3.68,1.24-4.62s3.68-.38,4.62,1.24l4.8,8.31c.93,1.62.38,3.68-1.24,4.62Z"/>
      <path class="cls-5" d="m148.98,60.45h0c-1.32,1.32-3.46,1.32-4.78,0l-6.78-6.79c-1.32-1.32-1.32-3.46,0-4.78,1.32-1.32,3.46-1.32,4.78,0l6.78,6.79c1.32,1.32,1.32,3.46,0,4.78Z"/>
      <path class="cls-5" d="m114.91,70.01h0c-1.53,1.07-3.63.71-4.71-.82l-5.52-7.85c-1.07-1.53-.71-3.64.82-4.71,1.53-1.07,3.63-.71,4.71.82l5.52,7.85c1.07,1.53.71,3.64-.82,4.71Z"/>
      <path class="cls-6" d="m104.39,73.4h0c-1.53,1.07-3.63.71-4.71-.82-1.07-1.53-.71-3.64.82-4.71,1.53-1.07,3.63-.71,4.71.82,1.07,1.53.71,3.64-.82,4.71Z"/>
      <path class="cls-5" d="m55.92,89.07h0c-1.53,1.07-3.63.71-4.71-.82-1.07-1.53-.71-3.64.82-4.71,1.53-1.07,3.63-.71,4.71.82,1.07,1.53.71,3.64-.82,4.71Z"/>
      <path class="cls-3" d="m2.51,99.13h0c-1.5-1.11-1.81-3.23-.7-4.73s3.23-1.81,4.73-.7c1.5,1.11,1.81,3.23.7,4.73-1.11,1.5-3.23,1.81-4.73.7Z"/>
      <path class="cls-3" d="m44.55,132.32h0c-1.5-1.11-1.81-3.23-.7-4.73,1.11-1.5,3.23-1.81,4.73-.7,1.5,1.11,1.81,3.23.7,4.73-1.11,1.5-3.23,1.81-4.73.7Z"/>
      <path class="cls-3" d="m118.42,117.14h0c1.44,1.19,1.64,3.32.46,4.76h0c-1.19,1.44-3.32,1.65-4.76.46-1.44-1.19-1.65-3.32-.46-4.76,1.19-1.44,3.32-1.65,4.76-.46Z"/>
      <path class="cls-3" d="m80.68,12.31h0c1.44,1.19,1.65,3.32.46,4.76h0c-1.19,1.44-3.32,1.65-4.76.46-1.44-1.19-1.64-3.32-.46-4.76,1.19-1.44,3.32-1.65,4.76-.46Z"/>
      <path class="cls-3" d="m25.86,8.93h0c1.44,1.19,1.65,3.32.46,4.76-1.19,1.44-3.32,1.65-4.76.46h0c-1.44-1.19-1.65-3.32-.46-4.76,1.19-1.44,3.32-1.65,4.76-.46Z"/>
      <path class="cls-3" d="m150.89,143.18h0c1.44,1.19,1.65,3.32.46,4.76-1.19,1.44-3.32,1.65-4.76.46-1.44-1.19-1.64-3.32-.46-4.76h0c1.19-1.44,3.32-1.65,4.76-.46Z"/>
      <path class="cls-5" d="m95.86,46.47h0c-1.53,1.07-3.63.71-4.71-.82l-5.52-7.85c-1.07-1.53-.71-3.64.82-4.71h0c1.53-1.07,3.63-.71,4.71.82l5.52,7.85c1.07,1.53.71,3.64-.82,4.71Z"/>
      <path class="cls-5" d="m118.06,26.49h0c-1.53,1.07-3.63.71-4.71-.82l-5.52-7.85c-1.07-1.53-.71-3.64.82-4.71s3.63-.71,4.71.82l5.52,7.85c1.07,1.53.71,3.64-.82,4.71Z"/>
      <path class="cls-5" d="m156.95,14.53h0c-1.53,1.07-3.63.71-4.71-.82l-5.52-7.85c-1.07-1.53-.71-3.64.82-4.71s3.63-.71,4.71.82l5.52,7.85c1.07,1.53.71,3.64-.82,4.71Z"/>
      <path class="cls-6" d="m88.7,75.5h0c-1.53,1.07-3.63.71-4.71-.82l-5.52-7.85c-1.07-1.53-.71-3.64.82-4.71h0c1.53-1.07,3.63-.71,4.71.82l5.52,7.85c1.07,1.53.71,3.64-.82,4.71Z"/>
      <path class="cls-5" d="m138.77,24.64h0c.39-1.83,2.18-3,4-2.61l9.39,1.98c1.83.39,2.99,2.18,2.61,4.01-.39,1.83-2.18,3-4,2.61l-9.39-1.98c-1.83-.39-2.99-2.18-2.61-4.01Z"/>
      <path class="cls-5" d="m147.23,81.77h0c-.39,1.83-2.18,3-4,2.61l-9.39-1.98c-1.83-.39-2.99-2.18-2.61-4.01.39-1.83,2.18-3,4-2.61l9.39,1.98c1.83.39,2.99,2.18,2.61,4.01Z"/>
      <path class="cls-3" d="m148.67,98.63h0c-1.68-.82-2.38-2.84-1.56-4.52l2.18-4.49,2.01-4.15c.82-1.68,2.84-2.38,4.52-1.56h0c1.68.82,2.38,2.84,1.56,4.52l-.8,1.13c-1.46,2.09-2.56,4.42-3.23,6.88l-.17.62c-.82,1.68-2.84,2.38-4.52,1.56Z"/>
      <path class="cls-5" d="m-.94,127.18h0c-1.86.17-3.5-1.2-3.67-3.06l-.86-9.56c-.17-1.86,1.2-3.5,3.06-3.67s3.5,1.2,3.67,3.06l.86,9.56c.17,1.86-1.2,3.5-3.06,3.67Z"/>
      <path class="cls-5" d="m32.72,131.41h0c-1.53,1.07-3.63.71-4.71-.82l-5.52-7.85c-1.07-1.53-.71-3.64.82-4.71,1.53-1.07,3.63-.71,4.71.82l5.52,7.85c1.07,1.53.71,3.64-.82,4.71Z"/>
      <path class="cls-5" d="m41.75,150.5h0c-1.07-1.53-.71-3.64.82-4.71l7.85-5.52c1.53-1.07,3.63-.71,4.71.82s.71,3.64-.82,4.71l-7.85,5.52c-1.53,1.07-3.63.71-4.71-.82Z"/>
      <path class="cls-6" d="m61.44,113.08h0c-1.53,1.07-3.63.71-4.71-.82l-5.52-7.85c-1.07-1.53-.71-3.64.82-4.71,1.53-1.07,3.63-.71,4.71.82l5.52,7.85c1.07,1.53.71,3.64-.82,4.71Z"/>
      <path class="cls-5" d="m26.58,105.77h0c-1.53,1.07-3.63.71-4.71-.82l-5.52-7.85c-1.07-1.53-.71-3.64.82-4.71,1.53-1.07,3.63-.71,4.71.82l5.52,7.85c1.07,1.53.71,3.64-.82,4.71Z"/>
      <path class="cls-5" d="m75.38,133.7h0c-.93,1.62-3,2.17-4.62,1.24l-8.31-4.8c-1.62-.93-2.17-3-1.24-4.62s3-2.17,4.62-1.24l8.31,4.8c1.62.93,2.17,3,1.24,4.62Z"/>
      <path class="cls-5" d="m25.04,30.16h0c-.79-1.69-.07-3.7,1.62-4.5l8.68-4.08c1.69-.79,3.7-.07,4.5,1.62.79,1.69.07,3.7-1.62,4.5l-8.68,4.08c-1.69.79-3.7.07-4.5-1.62Z"/>
      <path class="cls-5" d="m37.34,50.27h0c-1.62-.93-2.17-3-1.24-4.62l4.8-8.31c.93-1.62,3-2.17,4.62-1.24,1.62.93,2.17,3,1.24,4.62l-4.8,8.31c-.93,1.62-3,2.17-4.62,1.24Z"/>
      <path class="cls-5" d="m60.43,66.8h0c-1.76-.63-2.67-2.57-2.04-4.32l3.24-9.04c.63-1.76,2.56-2.67,4.32-2.04,1.76.63,2.67,2.57,2.04,4.32l-3.24,9.04c-.63,1.76-2.56,2.67-4.32,2.04Z"/>
      <path class="cls-5" d="m14.5,33.23h0c-1.69.79-3.7.07-4.5-1.62l-4.08-8.69c-.79-1.69-.07-3.7,1.62-4.5,1.69-.79,3.7-.07,4.5,1.62l4.08,8.69c.79,1.69.07,3.7-1.62,4.5Z"/>
      <path class="cls-5" d="m16.53,4.39h0c-1.76-.63-2.67-2.57-2.04-4.32l3.24-9.04c.63-1.76,2.56-2.67,4.32-2.04h0c1.76.63,2.67,2.57,2.04,4.32l-3.24,9.04c-.63,1.76-2.56,2.67-4.32,2.04Z"/>
      <path class="cls-5" d="m48.4,11.54h0c-1.87,0-3.38-1.51-3.38-3.38V-1.45c0-1.87,1.51-3.38,3.38-3.38s3.38,1.51,3.38,3.38v9.6c0,1.87-1.51,3.38-3.38,3.38Z"/>
      <path class="cls-6" d="m64.41,88.04h0c-1.76-.63-2.67-2.57-2.04-4.32l3.24-9.04c.63-1.76,2.56-2.67,4.32-2.04,1.76.63,2.67,2.57,2.04,4.32l-3.24,9.04c-.63,1.76-2.56,2.67-4.32,2.04Z"/>
      <path class="cls-5" d="m-5.35,11.04h0c-1.76-.63-2.67-2.57-2.04-4.32L-4.15-2.32c.63-1.76,2.56-2.67,4.32-2.04C1.92-3.73,2.84-1.8,2.21-.04L-1.03,9c-.63,1.76-2.56,2.67-4.32,2.04Z"/>
      <path class="cls-5" d="m57.42,41.02h0c-1.5-1.11-1.81-3.23-.7-4.73l5.72-7.7c1.11-1.5,3.23-1.81,4.73-.7s1.81,3.23.7,4.73l-5.72,7.7c-1.11,1.5-3.23,1.81-4.73.7Z"/>
      <path class="cls-5" d="m10.77,60.7h0c-1.71-.74-2.5-2.73-1.76-4.45l3.81-8.81c.74-1.71,2.73-2.5,4.44-1.76s2.5,2.73,1.76,4.45l-3.81,8.81c-.74,1.71-2.73,2.5-4.44,1.76Z"/>
      <path class="cls-3" d="m4.29,77.62h0c-.3-1.84.95-3.58,2.79-3.88l4.92-.8,4.55-.74c1.84-.3,3.58.95,3.88,2.8s-.95,3.58-2.79,3.88h-1.38c-2.55,0-5.08.45-7.48,1.32l-.61.22c-1.84.3-3.58-.95-3.88-2.8Z"/>
      <path class="cls-5" d="m39.99,84.46h0c-1.86.17-3.5-1.2-3.67-3.06l-.86-9.56c-.17-1.86,1.2-3.5,3.06-3.67h0c1.86-.17,3.5,1.2,3.67,3.06l.86,9.56c.17,1.86-1.2,3.5-3.06,3.67Z"/>
      <path class="cls-5" d="m123.35,129.55h0c1.33-1.31,3.47-1.29,4.78.05l6.72,6.85c1.31,1.33,1.29,3.47-.05,4.78-1.33,1.31-3.47,1.29-4.78-.05l-6.72-6.85c-1.31-1.33-1.29-3.47.05-4.78Z"/>
      <path class="cls-5" d="m100.45,125.17h0c1.62-.93,3.68-.38,4.62,1.24l4.8,8.31c.93,1.62.38,3.68-1.24,4.62s-3.68.38-4.62-1.24l-4.8-8.31c-.93-1.62-.38-3.68,1.24-4.62Z"/>
      <path class="cls-5" d="m79.01,145.7h0c.74-1.71,2.73-2.5,4.44-1.76l8.8,3.81c1.71.74,2.5,2.73,1.76,4.45s-2.73,2.5-4.44,1.76l-8.8-3.81c-1.71-.74-2.5-2.73-1.76-4.45Z"/>
      <path class="cls-5" d="m131.4,119h0c-.58-1.78.39-3.68,2.17-4.26l9.12-2.98c1.77-.58,3.68.39,4.26,2.17h0c.58,1.78-.39,3.68-2.17,4.26l-9.12,2.98c-1.77.58-3.68-.39-4.26-2.17Z"/>
      <path class="cls-5" d="m135.89,156.08h0c.88-1.65,2.92-2.28,4.57-1.4l8.47,4.5c1.65.88,2.28,2.92,1.4,4.57h0c-.88,1.65-2.92,2.28-4.57,1.4l-8.47-4.5c-1.65-.88-2.28-2.92-1.4-4.57Z"/>
      <path class="cls-5" d="m69.33,154.35h0c1.33-1.31,3.47-1.29,4.78.05l6.72,6.85c1.31,1.33,1.29,3.47-.05,4.78-1.33,1.31-3.47,1.29-4.78-.05l-6.72-6.85c-1.31-1.33-1.29-3.47.05-4.78Z"/>
      <path class="cls-5" d="m104.98,151.8h0c1.62-.93,3.68-.38,4.62,1.24l4.8,8.31c.93,1.62.38,3.68-1.24,4.62-1.62.93-3.68.38-4.62-1.24l-4.8-8.31c-.93-1.62-.38-3.68,1.24-4.62Z"/>
      <path class="cls-5" d="m100.18,101.73h0c.66-1.75,2.61-2.63,4.36-1.97l8.98,3.39c1.75.66,2.63,2.61,1.97,4.36-.66,1.75-2.61,2.63-4.36,1.97l-8.98-3.39c-1.75-.66-2.63-2.61-1.97-4.36Z"/>
      <path class="cls-5" d="m117.12,84.18h0c1.62-.93,3.68-.38,4.62,1.24l4.8,8.31c.93,1.62.38,3.68-1.24,4.62h0c-1.62.93-3.68.38-4.62-1.24l-4.8-8.31c-.93-1.62-.38-3.68,1.24-4.62Z"/>
      <path class="cls-3" d="m97.67,91.54l.57,4.57c.23,1.85-1.08,3.54-2.93,3.77-1.85.23-3.54-1.08-3.77-2.94l.05-1.38c.09-2.55-.26-5.1-1.04-7.53l-.2-.61c-.23-1.85,1.08-3.54,2.93-3.77h0c1.85-.23,3.54,1.08,3.77,2.94l.62,4.95"/>
      <path class="cls-5" d="m70.88,109.31h0c.66-1.75,2.61-2.63,4.36-1.97l8.98,3.39c1.75.66,2.63,2.61,1.97,4.36s-2.61,2.63-4.36,1.97l-8.98-3.39c-1.75-.66-2.63-2.61-1.97-4.36Z"/>
    </g>
    <path class="cls-4" d="m119.89,48.32c-3.16-.57-5.92-1.56-7.35-2.16l-11.17-3.71-4.15-1.6-3.05-.74c-.4-.05-.9.6-.97,1.01-.24.5-.48,1.56-.72,2.6-.24,1.04-.48,2.04-.72,2.42l-.85,3.04c-1.2,4.96-1.74,9.72-1.55,14.82l.08,2.29c.11,3.21,1.04,6.43,1.71,9.57.23,1.05.52,1.73.74,2.4.23.68.4,1.37.4,2.45l.47,13.12-.88,11.63c-.08,1.11-.31,2.2-.6,3.28-.19.73-.31,1.53-.47,2.86l.53,7.25c.07.97.08,1.94,0,2.9l-.29,4.22c-.52,2.93-2.49,9.01-3.96,13.54-.77,2.37-.73,6.08.84,8.78l.79,2.27-.05,1.11h-8.64s-.08-1.31-.08-1.31c.05-.88.08-2.86.24-3.72l.35-4.34.71-2.37.09-9.98c.03-3.11-.57-7.2-.33-10.3.23-2.94,1.16-5.73.79-6.99l-.24-1.05c-.73-2.18-1.09-4-1.25-5.39l-1.02-11.4-.85-1.11c-.27-.36-.81-.36-1.09,0l-.85,1.11-1.03,11.4c-.15,1.38-.52,3.21-1.24,5.39l-.24,1.05c-.37,1.25.57,4.05.79,6.99.24,3.1-.36,7.19-.33,10.3l.09,9.98.71,2.37.35,4.34c.16.86.2,2.84.24,3.72l-.08,1.3h-8.64s-.05-1.1-.05-1.1l.79-2.27c1.57-2.69,1.61-6.4.84-8.78-1.48-4.53-3.45-10.61-3.96-13.54l-.29-4.22c-.08-.96-.08-1.93,0-2.9l.53-7.25c-.16-1.33-.28-2.14-.47-2.86-.29-1.07-.52-2.17-.6-3.28l-.88-11.63.47-13.12c0-1.08.17-1.77.4-2.45.23-.67.52-1.35.74-2.4.68-3.14,1.6-6.36,1.71-9.57l.08-2.29c.19-5.1-.36-9.86-1.55-14.82l-.85-3.04c-.24-.38-.47-1.38-.72-2.42-.24-1.04-.47-2.1-.72-2.6-.07-.4-.56-1.05-.97-1.01l-3.05.74-4.15,1.6-11.17,3.71c-1.43.59-4.19,1.58-7.35,2.16l-8.74.69c-1.99.04-3.63.47-5.03,1.29l-1.52,1.05-2.22.93-1.35.56-2.15,1.92c-.33.24-1.13.33-1.03.42l-.77-.47.46-.69,1.97-1.64.3-.52-.51.05c-.39.08-.74.24-1.06.45l-1.22.79s-.06.04-.08.06l-1.05.54c-.27.14-.57.21-.86.22h-.55s-.24-.82-.24-.82l1.63-1.14,2.18-1.05.03-.43-.46-.23-2.47,1.03-1.6.88-.62-.64.08-.87,2.34-.97,2.29-1.03.22-.81-3.77,1.05-1.23-.11-.24-.79,1.76-.62,4.62-.96,1.7-.77.64-1.06-1.14-.54-1.46-.56-.67-.61-.11-.78,2.42.02c.5.05.99.19,1.44.41l1.78.89.82.67c.88.72,2.54,1.05,3.63.73l6.76-2.4c8.4-4.49,8.5-2.4,12.12-3.74l3.03-.87,2.18-.92,7.68-3.95,2.98-1.37c1.06-.35,2.36-.87,3.47-.97l5.77-.55c1.18-.11,2.88-.87,5.33-3.1l.18-1.33s0-.06,0-.08c0-.18-.09-.37-.23-.48-.7-.55-1.08-1.43-1.29-2.3l-.35-1.4-.71-.03c-1.22-.1-1.52-4.15.06-3.98l-.06-.42c-.16-1.39-.08-2.81.24-4.17.04-.19.08-.38.12-.57l.02-.08c.25-1.21.88-2.33,1.85-3.22l.6-.57c1-.93,2.31-1.48,3.68-1.52h.41s.41,0,.41,0c1.37.04,2.68.58,3.68,1.52l.6.57c.97.89,1.59,2.01,1.85,3.22l.02.08c.04.2.08.39.12.57.32,1.37.4,2.78.24,4.17l-.06.42c1.57-.17,1.28,3.88.06,3.98l-.71.03-.35,1.4c-.22.87-.59,1.74-1.29,2.3-.14.11-.23.3-.23.48,0,.03,0,.06,0,.08l.18,1.33c2.45,2.23,4.15,2.99,5.33,3.1l5.76.55c1.12.1,2.42.62,3.48.97l2.98,1.37,7.68,3.95,2.18.92,3.03.87c3.62,1.34,3.72-.75,12.12,3.74l6.75,2.4c1.09.32,2.76-.02,3.63-.73l.82-.67,1.78-.89c.45-.23.93-.37,1.44-.41l2.42-.02-.11.78-.68.61-1.45.56-1.14.54.63,1.06,1.71.77,4.62.96,1.76.62-.24.79-1.23.11-3.77-1.05.22.81,2.29,1.03,2.34.97.08.87-.62.64-1.6-.88-2.48-1.03-.45.23.03.43,2.18,1.05,1.63,1.14-.24.83h-.53c-.3-.01-.6-.09-.87-.23l-1.05-.54s-.06-.04-.08-.06l-1.22-.79c-.32-.21-.69-.37-1.06-.45l-.51-.05.3.52,1.97,1.64.46.69-.77.47c.1-.09-.7-.18-1.03-.42l-2.15-1.92-1.36-.56-2.21-.93-1.52-1.05c-1.41-.82-3.04-1.25-5.04-1.29l-8.73-.69"/>
  </g>
</svg>